<svg width="210" height="198" viewBox="0 0 210 198" fill="none" xmlns="http://www.w3.org/2000/svg">
<g clip-path="url(#clip0)">
<path d="M168.04 189.406C177.372 189.406 184.937 187.131 184.937 184.325C184.937 181.519 177.372 179.244 168.04 179.244C158.709 179.244 151.144 181.519 151.144 184.325C151.144 187.131 158.709 189.406 168.04 189.406Z" fill="#D3D3D3"/>
<path d="M29.9675 197.077C46.5181 197.077 59.935 193.042 59.935 188.065C59.935 183.088 46.5181 179.053 29.9675 179.053C13.4169 179.053 0 183.088 0 188.065C0 193.042 13.4169 197.077 29.9675 197.077Z" fill="#D3D3D3"/>
<path d="M106.067 181.376C152.144 181.376 189.497 170.806 189.497 157.766C189.497 144.727 152.144 134.157 106.067 134.157C59.9893 134.157 22.6362 144.727 22.6362 157.766C22.6362 170.806 59.9893 181.376 106.067 181.376Z" fill="#D3D3D3"/>
<path d="M170.84 146.579C170.84 146.579 183.021 145.788 186.514 136.204C191.718 121.928 174.495 113.063 186.84 106.604C204.949 97.1267 220.861 67.8316 200.391 69.1966C190.634 69.8472 181.528 98.0379 167.218 86.7616C157.53 79.1273 158.116 87.9542 158.116 87.9542L170.84 146.579Z" fill="#E5E5E5"/>
<path d="M38.4023 144.701C38.4023 144.701 28.2821 147.181 25.8679 135.901C23.4537 124.621 31.501 120.486 19.6982 110.078C7.89549 99.6698 21.5472 92.9569 33.3787 101.548C45.2102 110.139 47.6758 97.6214 47.6758 97.6214L38.4023 144.701Z" fill="#E5E5E5"/>
<path d="M44.7517 184.234C44.7517 184.234 25.6148 199.467 5.49268 171.778C13.6236 170.514 20.4362 170.98 44.7517 184.234Z" fill="#494949"/>
<path d="M55.7174 189.916C55.7174 189.916 48.0831 152.841 4.21777 145.011C10.3875 166.98 29.0892 192.803 55.7174 189.916Z" fill="#212121"/>
<path d="M45 180C36.5 165 21 155.5 15 153" stroke="#C4C4C4" stroke-width="0.7" stroke-linecap="round" stroke-linejoin="bevel"/>
<path d="M26 159.5L23.5 154.5M30.5 163L19 162M35 167L33.5 162M39.5 172H26M43 176.5V172" stroke="#C4C4C4" stroke-width="0.4" stroke-linecap="round"/>
<path d="M166.347 180.732C166.347 180.732 176.327 171.074 190.332 171.927C186.03 180.501 175.151 184.764 166.347 180.732Z" fill="#494949"/>
<path d="M158.859 184.323C158.859 184.323 156.646 164.806 186.822 160.983C186.017 168.025 181.994 184.524 158.859 184.323Z" fill="#212121"/>
<path d="M183.5 164C179 165.5 167 172 163 180" stroke="#C4C4C4" stroke-width="0.4" stroke-linecap="round"/>
<path d="M177.5 167L180 167.5M170.5 171.5L178 173.5M165 177L172 178.5M167.5 174L166.5 171M174 169V166.5" stroke="#C4C4C4" stroke-width="0.3" stroke-linecap="round"/>
<path d="M161.368 154.955L50.9958 155.899C42.4526 155.972 35.9943 148.184 37.6457 139.8L55.9094 47.0784C56.5134 44.0118 58.1633 41.25 60.5772 39.265C62.9911 37.2799 66.0192 36.1947 69.1442 36.1947H141.332C144.412 36.1947 147.4 37.2492 149.798 39.183C152.196 41.1167 153.861 43.8131 154.514 46.824L174.435 138.602C176.25 146.964 169.923 154.882 161.368 154.955Z" fill="white" stroke="#212121" stroke-width="3" stroke-miterlimit="10"/>
<path d="M106.067 14.4632C100.304 14.4632 94.7776 16.7528 90.7028 20.8282C86.628 24.9037 84.3389 30.4311 84.3389 36.1947H127.794C127.794 30.4311 125.505 24.9037 121.431 20.8282C117.356 16.7528 111.829 14.4632 106.067 14.4632Z" fill="white" stroke="#212121" stroke-width="2.5" stroke-miterlimit="10"/>
<path d="M132.526 89.9721C135.5 89.9721 137.91 87.5609 137.91 84.5865C137.91 81.6121 135.5 79.2009 132.526 79.2009C129.552 79.2009 127.141 81.6121 127.141 84.5865C127.141 87.5609 129.552 89.9721 132.526 89.9721Z" fill="#212121"/>
<path d="M82.9618 89.972C85.9356 89.972 88.3464 87.5608 88.3464 84.5865C88.3464 81.6121 85.9356 79.2009 82.9618 79.2009C79.9879 79.2009 77.5771 81.6121 77.5771 84.5865C77.5771 87.5608 79.9879 89.972 82.9618 89.972Z" fill="#212121"/>
<path d="M106.434 101.334C105.303 101.334 104.183 101.557 103.137 101.99C102.092 102.423 101.142 103.057 100.342 103.858C99.5422 104.658 98.9076 105.608 98.4747 106.653C98.0417 107.699 97.8188 108.819 97.8188 109.951H115.05C115.05 108.819 114.827 107.699 114.394 106.653C113.961 105.608 113.326 104.658 112.526 103.858C111.726 103.057 110.776 102.423 109.731 101.99C108.686 101.557 107.566 101.334 106.434 101.334Z" fill="#212121"/>
<path d="M6.05526 125.311C8.69592 125.311 10.8366 123.17 10.8366 120.529C10.8366 117.888 8.69592 115.746 6.05526 115.746C3.4146 115.746 1.27393 117.888 1.27393 120.529C1.27393 123.17 3.4146 125.311 6.05526 125.311Z" stroke="#212121" stroke-width="1.5" stroke-miterlimit="10"/>
<path d="M206.116 118.824C207.536 118.824 208.687 117.673 208.687 116.252C208.687 114.832 207.536 113.68 206.116 113.68C204.696 113.68 203.544 114.832 203.544 116.252C203.544 117.673 204.696 118.824 206.116 118.824Z" stroke="#3A3A3A" stroke-miterlimit="10"/>
<path d="M33.1013 73.7093L28.1399 74.1794C27.8779 74.2042 27.6856 74.4367 27.7105 74.6987L27.7105 74.6988C27.7353 74.9608 27.9678 75.1531 28.2298 75.1283L33.1912 74.6582C33.4531 74.6334 33.6454 74.4009 33.6206 74.1388L33.6206 74.1388C33.5958 73.8768 33.3633 73.6845 33.1013 73.7093Z" fill="#212121"/>
<path d="M29.9558 71.9826L30.4258 76.9449C30.4506 77.2069 30.6831 77.3992 30.9451 77.3744L30.9451 77.3744C31.2071 77.3495 31.3993 77.117 31.3745 76.855L30.9045 71.8927C30.8797 71.6307 30.6472 71.4384 30.3852 71.4632L30.3852 71.4632C30.1233 71.488 29.931 71.7206 29.9558 71.9826Z" fill="#212121"/>
<path d="M175.187 64.6182L171.497 64.0751C171.302 64.0464 171.121 64.1811 171.092 64.376C171.063 64.5709 171.198 64.7522 171.393 64.7809L175.084 65.324C175.278 65.3526 175.46 65.2179 175.488 65.023C175.517 64.8281 175.382 64.6468 175.187 64.6182Z" fill="#212121"/>
<path d="M173.209 62.8021L172.666 66.4932C172.637 66.6881 172.772 66.8693 172.967 66.898C173.161 66.9267 173.343 66.7919 173.371 66.597L173.914 62.9059C173.943 62.711 173.808 62.5298 173.613 62.5011C173.419 62.4724 173.237 62.6072 173.209 62.8021Z" fill="#212121"/>
</g>
<defs>
<clipPath id="clip0">
<rect width="210" height="197.077" fill="white"/>
</clipPath>
</defs>
</svg>
