<svg width="210" height="198" viewBox="0 0 210 198" fill="none" xmlns="http://www.w3.org/2000/svg">
<g clip-path="url(#clip0)">
<path d="M101.376 177C149.533 177 188.572 165.975 188.572 152.376C188.572 138.776 149.533 127.752 101.376 127.752C53.2191 127.752 14.1802 138.776 14.1802 152.376C14.1802 165.975 53.2191 177 101.376 177Z" fill="#D3D3D3"/>
<path d="M199.957 59.9997C189.76 60.6781 180.243 90.0804 165.288 78.3195L161.5 75L92.7559 137.253C130.539 145.098 169.074 140.708 169.074 140.708C169.074 140.708 181.804 139.883 185.455 129.887C190.893 114.997 172.893 105.752 185.795 99.0142C204.721 89.1301 221.352 58.5761 199.957 59.9997Z" fill="#E5E5E5"/>
<path d="M16.7784 103.955C3.0875 94.8612 16.1992 91.9602 30.4454 97.4764C31.2969 97.8176 33.3 98.5 34.5 98.5C36 98.5 55.5 78 92.5 82L142.5 97.4764C130.5 111.895 115.167 122.167 109 125.5C114.833 130.978 120.999 141.933 98.9996 141.933C65.7893 142.114 8.61686 145.653 17.5577 129.57C21.8423 121.863 39.5281 119.065 16.7784 103.955Z" fill="#E5E5E5"/>
<path d="M168.04 189.406C177.372 189.406 184.937 187.131 184.937 184.325C184.937 181.519 177.372 179.244 168.04 179.244C158.709 179.244 151.144 181.519 151.144 184.325C151.144 187.131 158.709 189.406 168.04 189.406Z" fill="#D3D3D3"/>
<path d="M29.9675 197.077C46.5181 197.077 59.935 193.042 59.935 188.065C59.935 183.088 46.5181 179.053 29.9675 179.053C13.4169 179.053 0 183.088 0 188.065C0 193.042 13.4169 197.077 29.9675 197.077Z" fill="#D3D3D3"/>
<path d="M44.7517 184.234C44.7517 184.234 25.6148 199.467 5.49268 171.778C13.6236 170.514 20.4362 170.98 44.7517 184.234Z" fill="#494949"/>
<path d="M55.7174 189.916C55.7174 189.916 48.0831 152.841 4.21777 145.011C10.3875 166.98 29.0892 192.803 55.7174 189.916Z" fill="#212121"/>
<path d="M45 180C36.5 165 21 155.5 15 153" stroke="#C4C4C4" stroke-width="0.7" stroke-linecap="round" stroke-linejoin="bevel"/>
<path d="M26 159.5L23.5 154.5M30.5 163L19 162M35 167L33.5 162M39.5 172H26M43 176.5V172" stroke="#C4C4C4" stroke-width="0.4" stroke-linecap="round"/>
<path d="M166.347 180.732C166.347 180.732 176.327 171.074 190.332 171.927C186.03 180.501 175.151 184.764 166.347 180.732Z" fill="#494949"/>
<path d="M158.859 184.323C158.859 184.323 156.646 164.806 186.822 160.983C186.017 168.025 181.994 184.524 158.859 184.323Z" fill="#212121"/>
<path d="M183.5 164C179 165.5 167 172 163 180" stroke="#C4C4C4" stroke-width="0.4" stroke-linecap="round"/>
<path d="M177.5 167L180 167.5M170.5 171.5L178 173.5M165 177L172 178.5M167.5 174L166.5 171M174 169V166.5" stroke="#C4C4C4" stroke-width="0.3" stroke-linecap="round"/>
<path d="M6.05526 125.311C8.69592 125.311 10.8366 123.17 10.8366 120.529C10.8366 117.888 8.69592 115.746 6.05526 115.746C3.4146 115.746 1.27393 117.888 1.27393 120.529C1.27393 123.17 3.4146 125.311 6.05526 125.311Z" stroke="#212121" stroke-width="1.5" stroke-miterlimit="10"/>
<path d="M206.116 118.824C207.536 118.824 208.687 117.673 208.687 116.252C208.687 114.832 207.536 113.68 206.116 113.68C204.696 113.68 203.544 114.832 203.544 116.252C203.544 117.673 204.696 118.824 206.116 118.824Z" stroke="#3A3A3A" stroke-miterlimit="10"/>
<path d="M16.1013 71.7093L11.1399 72.1794C10.8779 72.2042 10.6856 72.4367 10.7105 72.6987L10.7105 72.6988C10.7353 72.9608 10.9678 73.1531 11.2298 73.1283L16.1912 72.6582C16.4531 72.6334 16.6454 72.4009 16.6206 72.1388L16.6206 72.1388C16.5958 71.8768 16.3633 71.6845 16.1013 71.7093Z" fill="#212121"/>
<path d="M12.9561 69.9826L13.426 74.9449C13.4508 75.2069 13.6833 75.3992 13.9453 75.3744L13.9453 75.3744C14.2073 75.3495 14.3996 75.117 14.3747 74.855L13.9048 69.8927C13.88 69.6307 13.6475 69.4384 13.3855 69.4632L13.3855 69.4632C13.1235 69.488 12.9312 69.7206 12.9561 69.9826Z" fill="#212121"/>
<path d="M190.187 55.6182L186.497 55.0751C186.302 55.0464 186.121 55.1811 186.092 55.376C186.063 55.5709 186.198 55.7522 186.393 55.7809L190.084 56.324C190.278 56.3526 190.46 56.2179 190.488 56.023C190.517 55.8281 190.382 55.6468 190.187 55.6182Z" fill="#212121"/>
<path d="M188.209 53.8021L187.666 57.4932C187.637 57.6881 187.772 57.8693 187.967 57.898C188.161 57.9267 188.343 57.7919 188.371 57.597L188.914 53.9059C188.943 53.711 188.808 53.5298 188.613 53.5011C188.419 53.4724 188.237 53.6072 188.209 53.8021Z" fill="#212121"/>
<path d="M26 55C26 49.4772 30.4772 45 36 45H166C171.523 45 176 49.4772 176 55V135C176 140.523 171.523 145 166 145H36C30.4772 145 26 140.523 26 135V55Z" fill="white" stroke="#212121" stroke-width="3"/>
<path d="M26 57H176V77H26V57Z" fill="#212121"/>
<rect x="33" y="62" width="10" height="10" rx="5" fill="#F4F4F4"/>
<rect x="41" y="62" width="10" height="10" rx="5" fill="white"/>
<path d="M159 62H169V72H159V62Z" fill="white"/>
<path d="M161 64H169V66.2857H163.286V72H161V64Z" fill="#212121"/>
<path fill-rule="evenodd" clip-rule="evenodd" d="M162 65V66H159V64H161V62H163V65H162ZM159 68H162V70H159V68ZM165 65V62H167V65H165Z" fill="#212121"/>
<path d="M129.027 101.767C131.582 101.767 133.653 99.6996 133.653 97.1498C133.653 94.6 131.582 92.533 129.027 92.533C126.472 92.533 124.401 94.6 124.401 97.1498C124.401 99.6996 126.472 101.767 129.027 101.767Z" fill="#212121"/>
<path d="M77.2261 101.767C79.7808 101.767 81.8517 99.6996 81.8517 97.1498C81.8517 94.6 79.7808 92.533 77.2261 92.533C74.6715 92.533 72.6006 94.6 72.6006 97.1498C72.6006 99.6996 74.6715 101.767 77.2261 101.767Z" fill="#212121"/>
<path d="M102.376 114.174C101.244 114.174 100.123 114.397 99.0769 114.829C98.031 115.262 97.0807 115.895 96.2802 116.694C95.4797 117.493 94.8448 118.442 94.4116 119.486C93.9783 120.53 93.7554 121.648 93.7554 122.778H110.996C110.996 121.648 110.773 120.53 110.34 119.486C109.907 118.442 109.272 117.493 108.471 116.694C107.671 115.895 106.72 115.262 105.675 114.829C104.629 114.397 103.508 114.174 102.376 114.174Z" fill="#212121"/>
</g>
<defs>
<clipPath id="clip0">
<rect width="210" height="197.077" fill="white"/>
</clipPath>
</defs>
</svg>
