<svg width="210" height="198" viewBox="0 0 210 198" fill="none" xmlns="http://www.w3.org/2000/svg">
<g clip-path="url(#clip0)">
<path d="M101.376 177C149.533 177 188.572 165.975 188.572 152.376C188.572 138.776 149.533 127.752 101.376 127.752C53.2191 127.752 14.1802 138.776 14.1802 152.376C14.1802 165.975 53.2191 177 101.376 177Z" fill="#D3D3D3"/>
<path d="M165.287 78.3195C180.243 90.0804 189.76 60.6782 199.957 59.9997C221.352 58.5761 204.721 89.1302 185.795 99.0143C172.893 105.752 190.893 114.997 185.455 129.887C181.804 139.883 169.073 140.708 169.073 140.708C169.073 140.708 130.539 145.098 92.7557 137.253C56.8342 129.795 157.733 92.7062 138.669 64.8919C119.606 37.0775 165.287 78.3195 165.287 78.3195Z" fill="#E5E5E5"/>
<path d="M80.8516 108.55C79.3736 107.421 77.8291 106.381 76.2264 105.436C63.6167 97.9868 53.9137 99.8578 53.1622 80.533C52.3212 58.9036 46.7058 103.772 30.4454 97.4764C16.1992 91.9603 3.0875 94.8612 16.7784 103.955C39.5281 119.065 21.8423 121.863 17.5577 129.57C8.61686 145.654 65.7893 142.114 98.9996 141.933C132.21 141.751 80.8516 108.55 80.8516 108.55Z" fill="#E5E5E5"/>
<path d="M168.04 189.406C177.372 189.406 184.937 187.131 184.937 184.325C184.937 181.519 177.372 179.244 168.04 179.244C158.709 179.244 151.144 181.519 151.144 184.325C151.144 187.131 158.709 189.406 168.04 189.406Z" fill="#D3D3D3"/>
<path d="M29.9675 197.077C46.5181 197.077 59.935 193.042 59.935 188.065C59.935 183.088 46.5181 179.053 29.9675 179.053C13.4169 179.053 0 183.088 0 188.065C0 193.042 13.4169 197.077 29.9675 197.077Z" fill="#D3D3D3"/>
<path d="M44.7517 184.234C44.7517 184.234 25.6148 199.467 5.49268 171.778C13.6236 170.514 20.4362 170.98 44.7517 184.234Z" fill="#494949"/>
<path d="M55.7174 189.916C55.7174 189.916 48.0831 152.841 4.21777 145.011C10.3875 166.98 29.0892 192.803 55.7174 189.916Z" fill="#212121"/>
<path d="M45 180C36.5 165 21 155.5 15 153" stroke="#C4C4C4" stroke-width="0.7" stroke-linecap="round" stroke-linejoin="bevel"/>
<path d="M26 159.5L23.5 154.5M30.5 163L19 162M35 167L33.5 162M39.5 172H26M43 176.5V172" stroke="#C4C4C4" stroke-width="0.4" stroke-linecap="round"/>
<path d="M166.347 180.732C166.347 180.732 176.327 171.074 190.332 171.927C186.03 180.501 175.151 184.764 166.347 180.732Z" fill="#494949"/>
<path d="M158.859 184.323C158.859 184.323 156.646 164.806 186.822 160.983C186.017 168.025 181.994 184.524 158.859 184.323Z" fill="#212121"/>
<path d="M183.5 164C179 165.5 167 172 163 180" stroke="#C4C4C4" stroke-width="0.4" stroke-linecap="round"/>
<path d="M177.5 167L180 167.5M170.5 171.5L178 173.5M165 177L172 178.5M167.5 174L166.5 171M174 169V166.5" stroke="#C4C4C4" stroke-width="0.3" stroke-linecap="round"/>
<path d="M6.05526 125.311C8.69592 125.311 10.8366 123.17 10.8366 120.529C10.8366 117.888 8.69592 115.746 6.05526 115.746C3.4146 115.746 1.27393 117.888 1.27393 120.529C1.27393 123.17 3.4146 125.311 6.05526 125.311Z" stroke="#212121" stroke-width="1.5" stroke-miterlimit="10"/>
<path d="M206.116 118.824C207.536 118.824 208.687 117.673 208.687 116.252C208.687 114.832 207.536 113.68 206.116 113.68C204.696 113.68 203.544 114.832 203.544 116.252C203.544 117.673 204.696 118.824 206.116 118.824Z" stroke="#3A3A3A" stroke-miterlimit="10"/>
<path d="M27.1013 71.7093L22.1399 72.1794C21.8779 72.2042 21.6856 72.4367 21.7105 72.6987L21.7105 72.6988C21.7353 72.9608 21.9678 73.1531 22.2298 73.1283L27.1912 72.6582C27.4531 72.6334 27.6454 72.4009 27.6206 72.1388L27.6206 72.1388C27.5958 71.8768 27.3633 71.6845 27.1013 71.7093Z" fill="#212121"/>
<path d="M23.9558 69.9826L24.4258 74.9449C24.4506 75.2069 24.6831 75.3992 24.9451 75.3744L24.9451 75.3744C25.2071 75.3495 25.3993 75.117 25.3745 74.855L24.9045 69.8927C24.8797 69.6307 24.6472 69.4384 24.3852 69.4632L24.3852 69.4632C24.1233 69.488 23.931 69.7206 23.9558 69.9826Z" fill="#212121"/>
<path d="M185.187 55.6182L181.497 55.0751C181.302 55.0464 181.121 55.1811 181.092 55.376C181.063 55.5709 181.198 55.7522 181.393 55.7809L185.084 56.324C185.278 56.3526 185.46 56.2179 185.488 56.023C185.517 55.8281 185.382 55.6468 185.187 55.6182Z" fill="#212121"/>
<path d="M183.209 53.8021L182.666 57.4932C182.637 57.6881 182.772 57.8693 182.967 57.898C183.161 57.9267 183.343 57.7919 183.371 57.597L183.914 53.9059C183.943 53.711 183.808 53.5298 183.613 53.5011C183.419 53.4724 183.237 53.6072 183.209 53.8021Z" fill="#212121"/>
<path d="M172.817 67.5654C172.335 49.5 157.461 35 139.17 35C120.575 35 105.5 49.9841 105.5 68.4679L105.5 68.4734H105.5L105.5 68.4679C105.5 49.9841 90.4254 35 71.8299 35C53.5338 35 38.6569 49.5084 38.1825 67.5809C36.8105 84.9499 41.6791 124.627 105.66 155C169.357 124.618 174.187 84.9262 172.817 67.5654Z" fill="white" stroke="#212121" stroke-width="3" stroke-miterlimit="10"/>
<path d="M133.027 88.7667C135.582 88.7667 137.653 86.6996 137.653 84.1498C137.653 81.6 135.582 79.533 133.027 79.533C130.472 79.533 128.401 81.6 128.401 84.1498C128.401 86.6996 130.472 88.7667 133.027 88.7667Z" fill="#212121"/>
<path d="M81.2261 88.7667C83.7808 88.7667 85.8517 86.6996 85.8517 84.1498C85.8517 81.6 83.7808 79.533 81.2261 79.533C78.6715 79.533 76.6006 81.6 76.6006 84.1498C76.6006 86.6996 78.6715 88.7667 81.2261 88.7667Z" fill="#212121"/>
<path d="M106.376 101.174C105.244 101.174 104.123 101.397 103.077 101.829C102.031 102.262 101.081 102.895 100.28 103.694C99.4797 104.493 98.8448 105.442 98.4116 106.486C97.9783 107.53 97.7554 108.648 97.7554 109.778H114.996C114.996 108.648 114.773 107.53 114.34 106.486C113.907 105.442 113.272 104.493 112.471 103.694C111.671 102.895 110.72 102.262 109.675 101.829C108.629 101.397 107.508 101.174 106.376 101.174V101.174Z" fill="#212121"/>
</g>
<defs>
<clipPath id="clip0">
<rect width="210" height="197.077" fill="white"/>
</clipPath>
</defs>
</svg>
