<svg width="88" height="22" viewBox="0 0 88 22" fill="none" xmlns="http://www.w3.org/2000/svg">
<g clip-path="url(#clip0)">
<path fill-rule="evenodd" clip-rule="evenodd" d="M8.75269 0.133526L0 0L10.6452 20.8302C10.6846 20.9192 10.724 21.0082 10.7634 21.0972L14.5484 13.6197C13.4617 11.662 7.82823 1.8849 8.75269 0.133526ZM13.957 0.934688C14.1318 3.03039 16.1184 6.5599 17.2688 7.87808L17.3871 8.14514L21.5269 0.133526L14.5484 0L13.957 0.934688ZM31.1075 12.418H39.7419V8.54572H31.2258C31.1864 7.07692 31.147 5.60813 31.1075 4.13933H40.9247V0.133526H26.7312V21.0972L41.1613 21.2308C41.2007 19.8955 41.2401 18.5602 41.2796 17.225L31.1075 17.0914V12.418ZM53.6989 0.133526C50.9788 7.03174 48.2584 13.9306 45.5376 20.8302V21.2308H49.914L51.5699 16.6909H60.2043L61.7419 21.2308H66.3548L58.1936 0.133526H53.6989ZM58.6667 12.8186H53.1075L55.828 5.20755L58.6667 12.685V12.8186ZM84.0968 14.2874C87.4409 13.0654 89.0429 6.93978 86.5807 3.20464C84.0844 -0.582122 77.4953 -0.017471 71.5591 0.133526V21.0972L75.9355 21.2308C75.9749 19.2726 76.0143 17.3142 76.0538 15.3556H79.8387L83.3871 21.2308H88C87.6958 18.7985 84.7754 16.8603 84.0968 14.2874ZM76.0538 11.3498V4.13933C79.333 4.00664 82.6311 3.93348 83.2688 6.80987C84.3318 11.6036 79.5435 11.4935 76.0538 11.3498Z" fill="#212121"/>
</g>
<defs>
<clipPath id="clip0">
<rect width="88" height="21.2308" fill="white"/>
</clipPath>
</defs>
</svg>
