<svg width="78" height="18" viewBox="0 0 78 18" fill="none" xmlns="http://www.w3.org/2000/svg">
<path fill-rule="evenodd" clip-rule="evenodd" d="M7.75806 0.113207L0 0L9.43548 17.6604C9.47043 17.7358 9.50538 17.8113 9.54032 17.8868L12.8952 11.5472C11.932 9.88736 6.93866 1.59806 7.75806 0.113207ZM12.371 0.792453C12.526 2.56925 14.2868 5.56165 15.3065 6.67924L15.4113 6.90566L19.0806 0.113207L12.8952 0L12.371 0.792453ZM27.5726 10.5283H35.2258V7.24528H27.6774C27.6425 6 27.6075 4.75472 27.5726 3.50943H36.2742V0.113207H23.6935V17.8868L36.4839 18C36.5188 16.8679 36.5538 15.7358 36.5887 14.6038L27.5726 14.4906V10.5283ZM47.5968 0.113207C45.1857 5.9617 42.7745 11.8108 40.3629 17.6604V18H44.2419L45.7097 14.1509H53.3629L54.7258 18H58.8145L51.5806 0.113207H47.5968ZM52 10.8679H47.0726L49.4839 4.41509L52 10.7547V10.8679ZM74.5403 12.1132C77.5045 11.0772 78.9244 5.88373 76.7419 2.71698C74.5294 -0.493539 68.689 -0.0148123 63.4274 0.113207V17.8868L67.3065 18C67.3414 16.3398 67.3763 14.6794 67.4113 13.0189H70.7661L73.9113 18H78C77.7304 15.9378 75.1418 14.2946 74.5403 12.1132ZM67.4113 9.62264V3.50943C70.3179 3.39693 73.2412 3.3349 73.8065 5.77358C74.7486 9.83788 70.5044 9.74453 67.4113 9.62264Z" fill="white"/>
</svg>
