<?xml version="1.0" encoding="iso-8859-1"?>
<!-- Generator: Adobe Illustrator 19.0.0, SVG Export Plug-In . SVG Version: 6.00 Build 0)  -->
<svg version="1.1" id="Capa_1" xmlns="http://www.w3.org/2000/svg" xmlns:xlink="http://www.w3.org/1999/xlink" x="0px" y="0px"
	 viewBox="0 0 473.28 473.28" style="enable-background:new 0 0 473.28 473.28;" xml:space="preserve">
<g>
	<g>
		<path d="M438.151,436.64l-55.04-218.8c-0.513-2.079-1.839-3.866-3.68-4.96l-84.08-49.36c10.61-19.02,16.121-40.461,16-62.24
			c0-56-33.36-101.28-74.32-101.28s-74.72,45.44-74.72,101.28c-0.121,21.779,5.39,43.22,16,62.24l-84.48,49.12
			c-1.841,1.094-3.167,2.881-3.68,4.96l-55.04,219.04c-0.963,3.771,0.928,7.688,4.48,9.28l42.96,19.12
			c4.033,1.803,8.765-0.004,10.569-4.038c0.053-0.119,0.104-0.24,0.151-0.362l38.48-101.6v106.24c0,4.418,3.582,8,8,8h193.76
			c4.418,0,8-3.582,8-8v-106l38.48,101.36c1.566,4.132,6.184,6.212,10.316,4.646c0.136-0.052,0.271-0.107,0.404-0.166l42.96-19.12
			C437.259,444.403,439.158,440.437,438.151,436.64z M391.591,447.28l-50.96-134.56c-1.507-4.153-6.095-6.299-10.249-4.792
			c-3.189,1.157-5.301,4.2-5.271,7.592v141.76h-177.36V315.52c-0.427-4.398-4.339-7.616-8.736-7.189
			c-2.742,0.266-5.153,1.924-6.384,4.389l-51.36,134.56l-28.64-12.96l52.64-209.36l76.24-44.72v30.8
			c-7.293,4.418-9.624,13.912-5.206,21.206c4.418,7.293,13.912,9.624,21.206,5.206c7.293-4.418,9.624-13.912,5.206-21.206
			c-1.29-2.13-3.076-3.916-5.206-5.206v-44.8c0,0,0-0.48,0-0.8c0.041-0.479,0.041-0.961,0-1.44c-0.155-0.555-0.37-1.091-0.64-1.6
			c0.012-0.24,0.012-0.48,0-0.72c-11.7-17.943-17.747-38.983-17.36-60.4c-1.2-47.04,25.12-85.28,57.12-85.28v0
			c32,0,58.32,38.24,58.32,85.36c0.351,20.96-5.433,41.565-16.64,59.28c-1.497,1.51-2.332,3.554-2.32,5.68v44.8
			c-7.293,4.418-9.624,13.912-5.206,21.206c4.418,7.293,13.912,9.624,21.206,5.206c7.293-4.418,9.624-13.912,5.206-21.206
			c-1.29-2.13-3.076-3.916-5.206-5.206v-31.04l76.48,44.88l52.16,209.36L391.591,447.28z"/>
	</g>
</g>
<g>
	<g>
		<path d="M236.631,40.24c-25.6,0-45.68,31.04-45.68,70.64s20.08,70.64,45.68,70.64c25.6,0,45.68-31.04,45.68-70.64
			S262.231,40.24,236.631,40.24z M236.631,165.52c-16,0-29.68-24.88-29.68-54.64s13.68-54.64,29.68-54.64s29.68,25.04,29.68,54.64
			S252.631,165.52,236.631,165.52z"/>
	</g>
</g>
<g>
	<g>
		<path d="M299.031,383.68c-21.44-6.8-24.4-34.8-24.4-35.12c-0.374-4.135-3.848-7.297-8-7.28l-60,0.4
			c-4.152-0.017-7.626,3.145-8,7.28c0,0-2.8,28.24-24.4,35.12c-3.466,1.086-5.766,4.371-5.6,8v35.04c0,4.418,3.582,8,8,8h120
			c4.418,0,8-3.582,8-8v-35.44C304.797,388.051,302.497,384.766,299.031,383.68z M288.631,418.64h-104v-21.52
			c15.098-8.066,25.678-22.595,28.72-39.44h46.56c3.042,16.845,13.622,31.374,28.72,39.44V418.64z"/>
	</g>
</g>
<g>
</g>
<g>
</g>
<g>
</g>
<g>
</g>
<g>
</g>
<g>
</g>
<g>
</g>
<g>
</g>
<g>
</g>
<g>
</g>
<g>
</g>
<g>
</g>
<g>
</g>
<g>
</g>
<g>
</g>
</svg>
