<?xml version="1.0" encoding="iso-8859-1"?>
<!-- Generator: Adobe Illustrator 19.0.0, SVG Export Plug-In . SVG Version: 6.00 Build 0)  -->
<svg version="1.1" id="Capa_1" xmlns="http://www.w3.org/2000/svg" xmlns:xlink="http://www.w3.org/1999/xlink" x="0px" y="0px"
	 viewBox="0 0 414.001 414.001" style="enable-background:new 0 0 414.001 414.001;" xml:space="preserve">
<g>
	<g>
		<path d="M372.601,126.08L343.641,40V8c0-4.418-3.582-8-8-8H78.361c-4.418,0-8,3.582-8,8v32l-28.96,86.08
			c-0.272,0.826-0.407,1.691-0.4,2.56V406c0,4.418,3.582,8,8,8h135.36c3.887,0.071,7.262-2.663,8-6.48l14.64-77.12l14.8,77.12
			c0.738,3.817,4.113,6.551,8,6.48h135.2c4.418,0,8-3.582,8-8V128.64C373.007,127.771,372.872,126.906,372.601,126.08z M134.361,16
			h6.96v17.36h-6.96V16z M86.361,16h32v17.36h-32V16z M57.001,129.92l27.12-80.64h21.6c-2.48,19.76-12.32,68.72-48.72,82.88V129.92z
			 M199.001,286.96L177.721,398H57.001V148.88c50.88-14.72,62.4-77.44,64.88-99.6h77.12V286.96z M199.001,33.04h-41.6V16h41.6
			L199.001,33.04z M295.641,16h32v17.36h-32V16z M272.681,16h6.96v17.36h-7.04L272.681,16z M215.081,16h41.6v17.36h-41.68
			L215.081,16z M215.081,213.52V49.36h20v126.56C235.081,177.12,236.841,202.56,215.081,213.52z M357.001,398h-120.72l-21.28-111.04
			v-56c23.467-8.146,38.332-31.269,36-56V49.28h41.12c2.48,22.16,14,84.88,64.88,99.6V398z M357.001,132.24
			c-36.24-14.16-46.16-63.12-48.72-82.88h21.6l27.12,80.64V132.24z"/>
	</g>
</g>
<g>
</g>
<g>
</g>
<g>
</g>
<g>
</g>
<g>
</g>
<g>
</g>
<g>
</g>
<g>
</g>
<g>
</g>
<g>
</g>
<g>
</g>
<g>
</g>
<g>
</g>
<g>
</g>
<g>
</g>
</svg>
