<svg width="40" height="40" viewBox="0 0 40 40" fill="none" xmlns="http://www.w3.org/2000/svg">
<g clip-path="url(#clip0)">
<path fill-rule="evenodd" clip-rule="evenodd" d="M38.5864 12.4624C35.7157 5.49261 29.1921 -0.170777 19.1759 0.00393675L17.0775 0.20553C15.6863 0.488264 14.3381 0.738626 13.1228 1.2135C7.4646 3.4243 3.47958 7.42078 1.25859 13.0672C0.781888 14.2791 0.529943 15.6308 0.249732 17.0184C-0.319466 19.8372 0.170705 23.3229 0.855048 25.5659C2.67747 31.539 6.45685 35.8508 11.8718 38.226C13.545 38.9367 15.2905 39.4639 17.0775 39.7984L19.1759 39.9597L20.9515 40C22.7071 39.7001 24.2989 39.664 25.794 39.1936C31.9062 37.2708 36.3275 33.1531 38.6671 27.4609C40.5138 22.9679 40.3991 16.8636 38.5864 12.4624Z" fill="#212121"/>
<path fill-rule="evenodd" clip-rule="evenodd" d="M17.7632 11.011H7.06934L20.0231 33.5088L20.1038 33.5491L24.7042 25.566L18.4896 14.9219C17.755 13.6841 16.6347 12.4569 17.7632 11.011ZM24.6235 11.011C24.3256 11.3408 23.7179 11.7775 23.8971 12.5431L28.0132 19.6392L28.0536 19.7198L33.0979 11.0513L24.6235 11.011Z" fill="white"/>
</g>
<defs>
<clipPath id="clip0">
<rect width="40" height="40" fill="white"/>
</clipPath>
</defs>
</svg>
